<svg width="992" height="847" viewBox="0 0 992 847" fill="none" xmlns="http://www.w3.org/2000/svg">
<g opacity="0.73">
<path d="M452.244 141.233L509.776 81.4258L774.537 9.78867L881.618 223.867L969.831 417.397L878.952 599.034L634.501 673.444L566.019 816.939L165.942 722.31L27.632 538.03L70.263 363.571L198.313 299.247L253.397 205.175L289.81 93.9833L452.244 141.233Z" stroke="#C17F7F" stroke-width="11"/>
<circle cx="777.866" cy="241.792" r="9.32331" transform="rotate(-3.26736 777.866 241.792)" fill="#7E879D"/>
<circle cx="317.211" cy="177.94" r="9.32331" transform="rotate(-3.26736 317.211 177.94)" fill="#594646"/>
<circle cx="492.213" cy="522.812" r="9.32331" transform="rotate(-3.26736 492.213 522.812)" fill="#79989E"/>
<circle cx="492.316" cy="696.797" r="9.32331" transform="rotate(-3.26736 492.316 696.797)" fill="#777777"/>
<circle cx="792.478" cy="582.345" r="9.32331" transform="rotate(-3.26736 792.478 582.345)" fill="#B390A5"/>
<circle cx="696.692" cy="385.315" r="21.1001" transform="rotate(-3.26736 696.692 385.315)" fill="#AD8585"/>
<circle cx="691.021" cy="165.447" r="9.32331" transform="rotate(-3.26736 691.021 165.447)" fill="#9A8E4C"/>
<path d="M563.016 351.653L561.882 331.779L569.02 331.372C571.577 331.226 573.547 331.583 574.929 332.445C576.32 333.306 577.067 334.628 577.169 336.412C577.227 337.44 577.041 338.331 576.609 339.086C576.178 339.841 575.512 340.418 574.613 340.816C575.666 341.03 576.491 341.494 577.089 342.209C577.686 342.923 578.016 343.817 578.077 344.891C578.188 346.838 577.653 348.339 576.472 349.392C575.299 350.436 573.503 351.036 571.083 351.193L563.016 351.653ZM567.325 342.93L567.597 347.694L570.736 347.515C571.601 347.466 572.254 347.232 572.696 346.814C573.137 346.387 573.337 345.814 573.296 345.096C573.201 343.439 572.33 342.654 570.683 342.739L567.325 342.93ZM567.146 339.791L569.644 339.648C570.69 339.58 571.425 339.346 571.849 338.947C572.274 338.549 572.466 337.986 572.424 337.258C572.376 336.42 572.101 335.834 571.598 335.497C571.094 335.152 570.305 335.009 569.232 335.071L566.884 335.205L567.146 339.791ZM589.169 350.16C588.988 349.869 588.817 349.436 588.657 348.861C587.871 349.974 586.719 350.574 585.199 350.661C583.807 350.74 582.6 350.389 581.578 349.607C580.556 348.817 580.009 347.784 579.936 346.51C579.845 344.909 580.367 343.665 581.503 342.778C582.64 341.892 584.336 341.384 586.593 341.255L588.012 341.174L587.968 340.396C587.891 339.04 587.265 338.396 586.091 338.463C584.999 338.525 584.484 339.093 584.545 340.167L579.945 340.43C579.864 339.001 580.402 337.806 581.562 336.845C582.73 335.884 584.256 335.35 586.14 335.242C588.024 335.135 589.538 335.509 590.682 336.366C591.827 337.223 592.458 338.451 592.577 340.051L592.95 346.589C593.046 347.944 593.314 348.969 593.756 349.665L593.769 349.897L589.169 350.16ZM586.117 347.322C586.691 347.289 587.157 347.139 587.516 346.872C587.884 346.604 588.141 346.311 588.287 345.993L588.153 343.631L586.815 343.708C585.213 343.799 584.454 344.564 584.536 346.001C584.56 346.42 584.72 346.753 585.017 347.001C585.314 347.24 585.681 347.347 586.117 347.322ZM599.082 334.777L599.331 336.502C600.274 335.106 601.641 334.357 603.434 334.255C604.972 334.167 606.145 334.561 606.952 335.437C607.769 336.312 608.244 337.673 608.377 339.519L608.92 349.033L604.306 349.296L603.774 339.973C603.732 339.227 603.55 338.69 603.23 338.361C602.91 338.023 602.354 337.877 601.562 337.922C600.661 337.974 600.012 338.367 599.616 339.101L600.212 349.53L595.612 349.792L594.768 335.023L599.082 334.777ZM618.975 344.295C618.953 343.904 618.73 343.602 618.307 343.389C617.884 343.176 617.092 342.974 615.931 342.785C614.77 342.596 613.804 342.317 613.035 341.951C612.265 341.575 611.667 341.102 611.242 340.533C610.817 339.964 610.583 339.297 610.539 338.533C610.462 337.177 610.958 336.03 612.027 335.093C613.096 334.146 614.536 333.621 616.347 333.518C618.294 333.406 619.884 333.758 621.118 334.574C622.351 335.389 623.009 336.515 623.091 337.953L618.477 338.216C618.41 337.033 617.753 336.477 616.506 336.549C616.024 336.576 615.627 336.736 615.315 337.027C615.002 337.31 614.857 337.652 614.88 338.052C614.903 338.461 615.123 338.782 615.538 339.014C615.952 339.246 616.601 339.419 617.484 339.533C618.376 339.646 619.161 339.798 619.838 339.987C622.102 340.625 623.291 341.931 623.403 343.906C623.48 345.253 622.942 346.383 621.789 347.298C620.646 348.212 619.123 348.724 617.221 348.833C615.956 348.905 614.815 348.742 613.797 348.343C612.779 347.945 611.97 347.37 611.37 346.619C610.771 345.869 610.446 345.061 610.397 344.196L614.696 343.951C614.754 344.632 615.01 345.12 615.465 345.413C615.919 345.698 616.488 345.821 617.17 345.782C617.798 345.746 618.259 345.592 618.554 345.319C618.858 345.046 618.998 344.705 618.975 344.295ZM631.428 342.229L630.206 343.6L630.446 347.804L625.846 348.066L624.648 327.087L629.248 326.824L629.884 337.962L630.313 337.322L633.533 332.81L639.048 332.496L634.221 338.865L640.232 347.245L634.964 347.546L631.428 342.229ZM649.419 346.721C649.238 346.43 649.067 345.997 648.906 345.421C648.121 346.534 646.968 347.134 645.448 347.221C644.056 347.301 642.849 346.949 641.828 346.168C640.806 345.377 640.258 344.345 640.186 343.071C640.094 341.469 640.617 340.225 641.753 339.339C642.889 338.452 644.586 337.945 646.842 337.816L648.262 337.735L648.218 336.957C648.14 335.601 647.514 334.956 646.341 335.023C645.249 335.086 644.733 335.654 644.795 336.728L640.195 336.99C640.113 335.562 640.652 334.367 641.811 333.406C642.98 332.445 644.506 331.91 646.39 331.803C648.273 331.695 649.787 332.07 650.932 332.926C652.076 333.783 652.708 335.011 652.826 336.611L653.2 343.15C653.295 344.504 653.564 345.53 654.005 346.226L654.018 346.458L649.419 346.721ZM646.367 343.882C646.94 343.849 647.406 343.699 647.766 343.432C648.134 343.165 648.391 342.872 648.537 342.553L648.402 340.192L647.065 340.268C645.463 340.359 644.703 341.124 644.785 342.562C644.809 342.98 644.97 343.314 645.267 343.561C645.564 343.8 645.93 343.907 646.367 343.882ZM646.488 325.854L651.347 325.576L647.797 330.079L644.044 330.293L646.488 325.854ZM551.26 380.078C551.22 379.378 550.938 378.846 550.416 378.483C549.902 378.12 549.01 377.765 547.739 377.417C546.469 377.07 545.426 376.723 544.612 376.377C541.965 375.259 540.578 373.595 540.452 371.383C540.389 370.282 540.652 369.295 541.241 368.421C541.839 367.538 542.712 366.831 543.859 366.3C545.006 365.76 546.312 365.448 547.777 365.364C549.206 365.283 550.499 365.465 551.656 365.91C552.823 366.354 553.747 367.032 554.429 367.942C555.11 368.844 555.485 369.9 555.554 371.11L550.777 371.383C550.731 370.573 550.445 369.959 549.919 369.542C549.402 369.124 548.72 368.939 547.874 368.988C547.019 369.036 546.352 369.266 545.873 369.677C545.403 370.078 545.185 370.57 545.218 371.152C545.247 371.662 545.546 372.11 546.116 372.498C546.686 372.876 547.67 373.249 549.07 373.616C550.469 373.975 551.624 374.384 552.536 374.843C554.754 375.958 555.925 377.603 556.049 379.778C556.149 381.516 555.571 382.918 554.318 383.985C553.064 385.051 551.295 385.65 549.011 385.78C547.4 385.872 545.923 385.669 544.58 385.17C543.246 384.662 542.218 383.927 541.496 382.964C540.783 381.991 540.39 380.85 540.315 379.539L545.119 379.265C545.18 380.33 545.498 381.101 546.073 381.58C546.657 382.048 547.568 382.247 548.805 382.177C549.597 382.132 550.211 381.928 550.646 381.565C551.091 381.193 551.295 380.697 551.26 380.078ZM547.51 362.134L549.412 360.19L553.33 359.967L553.338 360.117L549.109 364.234L546.147 364.403L541.448 360.768L541.441 360.645L545.399 360.419L547.51 362.134ZM562.903 366.213L563.112 369.884L565.542 369.746L565.724 372.94L563.294 373.078L563.68 379.835C563.712 380.39 563.834 380.771 564.047 380.978C564.259 381.185 564.661 381.272 565.253 381.238C565.708 381.212 566.089 381.163 566.395 381.09L566.583 384.38C565.77 384.691 564.913 384.872 564.012 384.924C562.428 385.014 561.238 384.708 560.44 384.005C559.642 383.302 559.2 382.19 559.113 380.671L558.695 373.341L556.811 373.448L556.629 370.254L558.512 370.147L558.303 366.475L562.903 366.213ZM573.06 384.133L568.446 384.397L567.603 369.628L572.216 369.365L573.06 384.133ZM567.112 365.835C567.075 365.18 567.281 364.63 567.73 364.184C568.18 363.738 568.782 363.494 569.537 363.451C570.292 363.408 570.919 363.582 571.416 363.974C571.913 364.365 572.18 364.889 572.217 365.544C572.255 366.199 572.049 366.749 571.6 367.195C571.15 367.641 570.548 367.885 569.793 367.928C569.037 367.971 568.411 367.797 567.914 367.405C567.417 367.014 567.15 366.49 567.112 365.835ZM584.225 383.496C584.044 383.205 583.873 382.772 583.713 382.197C582.927 383.31 581.775 383.91 580.255 383.997C578.863 384.076 577.656 383.725 576.634 382.943C575.612 382.153 575.065 381.12 574.992 379.846C574.901 378.245 575.423 377.001 576.559 376.114C577.696 375.228 579.392 374.72 581.649 374.591L583.068 374.51L583.024 373.732C582.947 372.376 582.321 371.732 581.147 371.799C580.055 371.861 579.54 372.429 579.601 373.503L575.001 373.766C574.92 372.337 575.458 371.142 576.618 370.181C577.786 369.22 579.312 368.686 581.196 368.578C583.08 368.47 584.594 368.845 585.738 369.702C586.883 370.559 587.514 371.787 587.633 373.387L588.006 379.925C588.102 381.28 588.37 382.305 588.812 383.001L588.825 383.233L584.225 383.496ZM581.173 380.658C581.747 380.625 582.213 380.475 582.572 380.208C582.94 379.94 583.197 379.647 583.343 379.329L583.209 376.967L581.871 377.044C580.269 377.135 579.51 377.9 579.592 379.337C579.616 379.756 579.776 380.089 580.073 380.337C580.37 380.576 580.737 380.682 581.173 380.658ZM596.115 377.326L597.919 367.897L602.764 367.621L598.789 382.665L594.094 382.933L588.432 368.439L593.292 368.161L596.115 377.326ZM608.361 367.301L608.61 369.026C609.553 367.63 610.92 366.881 612.713 366.779C614.251 366.691 615.424 367.085 616.231 367.961C617.048 368.836 617.523 370.197 617.656 372.043L618.199 381.557L613.585 381.82L613.053 372.497C613.011 371.751 612.829 371.214 612.509 370.885C612.189 370.547 611.633 370.401 610.841 370.446C609.94 370.498 609.291 370.891 608.895 371.625L609.491 382.054L604.891 382.316L604.047 367.547L608.361 367.301ZM625.611 381.133L620.997 381.397L620.154 366.628L624.768 366.364L625.611 381.133ZM619.664 362.835C619.626 362.18 619.832 361.63 620.281 361.184C620.731 360.738 621.333 360.494 622.088 360.451C622.844 360.408 623.47 360.582 623.967 360.974C624.464 361.365 624.731 361.889 624.769 362.544C624.806 363.199 624.6 363.749 624.151 364.195C623.701 364.641 623.099 364.885 622.344 364.928C621.589 364.971 620.962 364.797 620.465 364.405C619.968 364.014 619.701 363.49 619.664 362.835ZM634.514 377.339C635.16 377.302 635.651 377.1 635.986 376.734C636.321 376.359 636.466 375.858 636.421 375.23L640.734 374.984C640.827 376.604 640.32 377.966 639.214 379.07C638.118 380.173 636.655 380.777 634.826 380.881C632.679 381.004 630.948 380.427 629.633 379.151C628.319 377.875 627.593 376.045 627.457 373.661L627.446 373.469C627.361 371.977 627.559 370.647 628.04 369.478C628.53 368.3 629.276 367.376 630.279 366.707C631.281 366.029 632.491 365.65 633.911 365.569C635.831 365.459 637.386 365.904 638.575 366.905C639.764 367.905 640.41 369.315 640.514 371.135L636.201 371.381C636.157 370.617 635.937 370.04 635.541 369.652C635.144 369.264 634.632 369.088 634.004 369.124C632.812 369.192 632.16 369.991 632.046 371.522C632.01 372.008 632.016 372.675 632.064 373.521C632.149 375.004 632.385 376.022 632.773 376.575C633.16 377.128 633.741 377.383 634.514 377.339ZM651.299 379.667C651.118 379.376 650.948 378.943 650.787 378.368C650.002 379.481 648.849 380.081 647.329 380.167C645.937 380.247 644.73 379.896 643.709 379.114C642.687 378.324 642.139 377.291 642.067 376.017C641.975 374.416 642.498 373.172 643.634 372.285C644.77 371.399 646.466 370.891 648.723 370.762L650.143 370.681L650.098 369.903C650.021 368.547 649.395 367.903 648.221 367.97C647.129 368.032 646.614 368.6 646.675 369.674L642.076 369.937C641.994 368.508 642.533 367.313 643.692 366.352C644.861 365.391 646.387 364.856 648.27 364.749C650.154 364.641 651.668 365.016 652.813 365.873C653.957 366.729 654.589 367.958 654.707 369.558L655.081 376.096C655.176 377.451 655.445 378.476 655.886 379.172L655.899 379.404L651.299 379.667ZM648.248 376.828C648.821 376.796 649.287 376.646 649.646 376.379C650.015 376.111 650.272 375.818 650.418 375.499L650.283 373.138L648.945 373.214C647.344 373.306 646.584 374.07 646.666 375.508C646.69 375.927 646.851 376.26 647.148 376.508C647.444 376.746 647.811 376.853 648.248 376.828Z" fill="black"/>
<path d="M576.754 161.175L577.084 166.955L572.977 167.189L572.005 150.154L578.802 149.766C580.105 149.692 581.269 149.868 582.295 150.295C583.328 150.713 584.143 151.351 584.74 152.209C585.344 153.059 585.678 154.045 585.743 155.169C585.837 156.83 585.317 158.194 584.18 159.26C583.051 160.319 581.449 160.907 579.375 161.025L576.754 161.175ZM576.573 158.004L579.264 157.851C580.059 157.805 580.652 157.572 581.043 157.151C581.442 156.729 581.62 156.155 581.579 155.43C581.533 154.634 581.283 154.011 580.826 153.559C580.37 153.108 579.771 152.9 579.03 152.934L576.292 153.09L576.573 158.004ZM587.374 159.9C587.302 158.636 587.484 157.499 587.919 156.488C588.354 155.469 589.016 154.669 589.906 154.086C590.796 153.503 591.862 153.176 593.102 153.105C594.997 152.997 596.524 153.501 597.684 154.616C598.842 155.724 599.479 157.287 599.595 159.308L599.603 159.448C599.715 161.421 599.255 163.021 598.222 164.245C597.195 165.462 595.746 166.124 593.875 166.231C592.073 166.334 590.595 165.878 589.442 164.864C588.288 163.842 587.615 162.409 587.424 160.566L587.374 159.9ZM591.331 159.92C591.398 161.09 591.63 161.938 592.028 162.463C592.426 162.988 592.983 163.23 593.701 163.189C595.105 163.109 595.761 161.988 595.669 159.825L595.646 159.427C595.516 157.158 594.726 156.064 593.275 156.147C591.957 156.222 591.299 157.242 591.302 159.206L591.331 159.92ZM600.83 159.155C600.716 157.15 601.058 155.546 601.858 154.342C602.658 153.139 603.834 152.492 605.386 152.404C606.517 152.339 607.494 152.729 608.317 153.575L607.951 147.163L611.906 146.937L612.932 164.908L609.387 165.111L609.11 163.765C608.36 164.872 607.36 165.461 606.112 165.532C604.607 165.618 603.381 165.109 602.433 164.005C601.486 162.901 600.952 161.284 600.83 159.155ZM604.787 159.176C604.915 161.422 605.635 162.508 606.945 162.433C607.818 162.383 608.422 161.981 608.754 161.226L608.479 156.406C608.077 155.678 607.44 155.338 606.566 155.388C605.349 155.458 604.746 156.478 604.757 158.449L604.787 159.176ZM618.382 153.258C619.164 152.149 620.21 151.558 621.52 151.483C622.916 151.403 623.993 151.756 624.75 152.543C625.507 153.329 625.939 154.529 626.047 156.142L626.503 164.133L622.549 164.359L622.098 156.462C622.06 155.791 621.895 155.307 621.604 155.011C621.313 154.707 620.84 154.573 620.185 154.611C619.374 154.657 618.815 154.947 618.509 155.481L619.027 164.56L615.084 164.785L614.058 146.814L618.001 146.589L618.382 153.258ZM627.832 157.59C627.76 156.326 627.941 155.189 628.376 154.178C628.811 153.16 629.474 152.359 630.364 151.776C631.254 151.193 632.319 150.866 633.559 150.795C635.455 150.687 636.982 151.191 638.141 152.306C639.3 153.414 639.937 154.978 640.052 156.998L640.06 157.138C640.173 159.112 639.713 160.711 638.679 161.936C637.653 163.153 636.204 163.814 634.332 163.921C632.53 164.024 631.053 163.568 629.899 162.554C628.745 161.533 628.073 160.1 627.882 158.256L627.832 157.59ZM631.789 157.611C631.855 158.781 632.088 159.628 632.485 160.153C632.883 160.678 633.441 160.92 634.158 160.879C635.562 160.799 636.218 159.678 636.126 157.516L636.103 157.118C635.974 154.848 635.184 153.755 633.733 153.837C632.415 153.913 631.757 154.932 631.76 156.896L631.789 157.611ZM649.29 153.712L647.986 153.693C646.746 153.764 645.973 154.199 645.666 154.999L646.124 163.013L642.181 163.238L641.458 150.579L645.155 150.368L645.377 151.987C645.969 150.709 646.858 150.036 648.044 149.969C648.465 149.945 648.834 149.97 649.151 150.046L649.29 153.712ZM655.39 162.484L651.435 162.71L650.713 150.051L654.667 149.825L655.39 162.484ZM650.292 146.8C650.26 146.239 650.437 145.767 650.822 145.385C651.207 145.003 651.723 144.793 652.371 144.756C653.018 144.719 653.555 144.869 653.981 145.204C654.407 145.54 654.636 145.989 654.668 146.55C654.7 147.112 654.524 147.584 654.138 147.966C653.753 148.348 653.237 148.557 652.59 148.594C651.942 148.631 651.406 148.482 650.98 148.146C650.553 147.81 650.324 147.362 650.292 146.8ZM663.967 162.229C662.025 162.34 660.421 161.853 659.154 160.767C657.886 159.673 657.199 158.198 657.093 156.342L657.075 156.014C657.001 154.72 657.173 153.563 657.593 152.546C658.02 151.528 658.678 150.723 659.568 150.132C660.457 149.534 661.533 149.198 662.797 149.126C664.575 149.025 666.011 149.498 667.104 150.547C668.196 151.588 668.798 153.095 668.911 155.069L668.999 156.601L661.16 157.049C661.341 157.751 661.681 158.291 662.18 158.669C662.679 159.048 663.306 159.215 664.063 159.172C665.311 159.101 666.261 158.608 666.913 157.695L668.836 159.721C668.384 160.428 667.717 161.01 666.835 161.467C665.961 161.916 665.005 162.17 663.967 162.229ZM662.947 152.17C661.793 152.235 661.15 153.039 661.019 154.58L664.997 154.353L664.979 154.049C664.959 153.416 664.771 152.938 664.416 152.614C664.061 152.282 663.571 152.134 662.947 152.17Z" fill="black"/>
<path d="M800.857 268.905L799.884 251.871L806.003 251.521C808.195 251.396 809.883 251.703 811.068 252.441C812.26 253.179 812.9 254.312 812.987 255.841C813.038 256.723 812.878 257.487 812.508 258.134C812.138 258.781 811.568 259.275 810.797 259.617C811.699 259.8 812.407 260.198 812.919 260.81C813.431 261.423 813.714 262.189 813.766 263.109C813.862 264.779 813.403 266.065 812.39 266.967C811.385 267.862 809.845 268.377 807.771 268.511L800.857 268.905ZM804.55 261.429L804.783 265.512L807.474 265.358C808.215 265.316 808.775 265.116 809.154 264.758C809.532 264.392 809.703 263.901 809.668 263.285C809.587 261.865 808.84 261.192 807.428 261.264L804.55 261.429ZM804.396 258.738L806.537 258.616C807.434 258.557 808.064 258.356 808.428 258.015C808.792 257.673 808.956 257.19 808.921 256.566C808.88 255.849 808.644 255.346 808.212 255.057C807.781 254.761 807.105 254.639 806.184 254.692L804.172 254.807L804.396 258.738ZM823.274 267.626C823.118 267.376 822.972 267.005 822.834 266.512C822.161 267.466 821.173 267.98 819.871 268.055C818.677 268.123 817.643 267.822 816.767 267.152C815.891 266.474 815.422 265.589 815.36 264.497C815.281 263.125 815.729 262.058 816.703 261.298C817.677 260.539 819.131 260.103 821.065 259.993L822.282 259.923L822.244 259.257C822.178 258.094 821.641 257.542 820.635 257.6C819.699 257.653 819.258 258.14 819.31 259.06L815.367 259.285C815.297 258.061 815.759 257.037 816.753 256.213C817.755 255.389 819.063 254.931 820.677 254.839C822.292 254.747 823.59 255.068 824.57 255.802C825.551 256.536 826.093 257.589 826.195 258.961L826.515 264.565C826.596 265.726 826.827 266.605 827.205 267.202L827.216 267.401L823.274 267.626ZM820.658 265.193C821.149 265.165 821.549 265.036 821.857 264.807C822.172 264.578 822.393 264.327 822.518 264.053L822.402 262.029L821.256 262.095C819.883 262.173 819.232 262.829 819.302 264.061C819.323 264.42 819.46 264.705 819.715 264.918C819.969 265.122 820.284 265.214 820.658 265.193ZM831.77 254.44L831.984 255.919C832.792 254.722 833.964 254.08 835.501 253.992C836.819 253.917 837.824 254.255 838.517 255.006C839.217 255.756 839.624 256.922 839.737 258.504L840.203 266.659L836.248 266.885L835.792 258.894C835.756 258.254 835.6 257.794 835.326 257.512C835.051 257.223 834.575 257.097 833.896 257.136C833.124 257.18 832.568 257.517 832.228 258.147L832.739 267.085L828.796 267.31L828.073 254.651L831.77 254.44ZM848.822 262.599C848.802 262.263 848.612 262.004 848.249 261.822C847.886 261.639 847.207 261.466 846.212 261.304C845.217 261.142 844.39 260.903 843.73 260.589C843.07 260.267 842.558 259.862 842.193 259.374C841.829 258.886 841.628 258.314 841.591 257.659C841.524 256.497 841.95 255.514 842.866 254.711C843.782 253.899 845.017 253.449 846.569 253.361C848.238 253.265 849.601 253.567 850.658 254.266C851.715 254.964 852.279 255.93 852.349 257.162L848.395 257.388C848.337 256.374 847.774 255.898 846.705 255.959C846.292 255.982 845.951 256.119 845.684 256.369C845.416 256.611 845.292 256.904 845.312 257.247C845.332 257.598 845.519 257.873 845.875 258.072C846.231 258.271 846.787 258.419 847.544 258.517C848.308 258.614 848.981 258.744 849.561 258.906C851.502 259.453 852.521 260.572 852.617 262.265C852.683 263.419 852.222 264.388 851.234 265.173C850.253 265.956 848.948 266.395 847.318 266.488C846.234 266.55 845.256 266.41 844.383 266.068C843.511 265.727 842.817 265.234 842.303 264.591C841.789 263.947 841.511 263.255 841.469 262.514L845.154 262.303C845.203 262.888 845.423 263.305 845.813 263.557C846.202 263.801 846.689 263.906 847.274 263.873C847.813 263.842 848.208 263.71 848.461 263.476C848.721 263.242 848.842 262.95 848.822 262.599ZM859.496 260.827L858.448 262.002L858.653 265.606L854.711 265.831L853.684 247.848L857.627 247.623L858.172 257.17L858.54 256.621L861.3 252.754L866.027 252.485L861.89 257.944L867.042 265.127L862.526 265.385L859.496 260.827ZM874.916 264.677C874.761 264.428 874.615 264.057 874.477 263.564C873.804 264.518 872.816 265.032 871.513 265.106C870.32 265.175 869.285 264.874 868.41 264.204C867.534 263.526 867.065 262.641 867.002 261.549C866.924 260.176 867.372 259.11 868.345 258.35C869.319 257.59 870.774 257.155 872.708 257.045L873.925 256.975L873.887 256.308C873.82 255.146 873.284 254.594 872.278 254.651C871.342 254.705 870.9 255.192 870.953 256.112L867.01 256.337C866.94 255.113 867.402 254.088 868.396 253.265C869.397 252.441 870.705 251.983 872.32 251.891C873.934 251.798 875.232 252.119 876.213 252.854C877.194 253.588 877.735 254.641 877.837 256.012L878.157 261.617C878.239 262.778 878.469 263.657 878.847 264.253L878.859 264.452L874.916 264.677ZM872.3 262.244C872.792 262.216 873.191 262.088 873.499 261.859C873.815 261.63 874.035 261.379 874.16 261.105L874.045 259.081L872.898 259.147C871.526 259.225 870.874 259.88 870.945 261.113C870.965 261.472 871.103 261.757 871.357 261.97C871.612 262.174 871.926 262.266 872.3 262.244ZM872.404 246.792L876.569 246.554L873.527 250.413L870.309 250.597L872.404 246.792ZM802.453 296.86L801.48 279.825L807.599 279.476C809.791 279.351 811.479 279.657 812.664 280.396C813.856 281.134 814.496 282.267 814.583 283.796C814.634 284.677 814.474 285.441 814.104 286.088C813.734 286.736 813.164 287.23 812.393 287.571C813.295 287.754 814.003 288.152 814.515 288.765C815.027 289.377 815.31 290.143 815.362 291.064C815.457 292.733 814.999 294.019 813.986 294.922C812.981 295.817 811.441 296.331 809.367 296.465L802.453 296.86ZM806.146 289.383L806.379 293.466L809.07 293.313C809.811 293.271 810.371 293.07 810.749 292.712C811.128 292.346 811.299 291.855 811.264 291.239C811.183 289.82 810.436 289.146 809.024 289.219L806.146 289.383ZM805.992 286.692L808.133 286.57C809.03 286.511 809.66 286.311 810.024 285.969C810.388 285.628 810.552 285.145 810.517 284.521C810.476 283.803 810.239 283.3 809.808 283.012C809.377 282.716 808.701 282.594 807.78 282.646L805.768 282.761L805.992 286.692ZM823.877 295.872C821.934 295.982 820.33 295.495 819.063 294.409C817.795 293.316 817.108 291.841 817.003 289.984L816.984 289.657C816.91 288.362 817.083 287.206 817.502 286.188C817.929 285.17 818.587 284.365 819.477 283.774C820.366 283.176 821.442 282.841 822.706 282.769C824.484 282.667 825.92 283.141 827.013 284.189C828.105 285.23 828.708 286.738 828.82 288.711L828.908 290.244L821.069 290.691C821.25 291.393 821.59 291.933 822.089 292.311C822.588 292.69 823.215 292.857 823.972 292.814C825.22 292.743 826.17 292.251 826.822 291.337L828.745 293.363C828.293 294.07 827.626 294.652 826.744 295.109C825.87 295.558 824.914 295.812 823.877 295.872ZM822.856 285.812C821.702 285.878 821.059 286.681 820.928 288.222L824.906 287.995L824.889 287.691C824.868 287.058 824.68 286.58 824.325 286.256C823.97 285.924 823.48 285.776 822.856 285.812ZM834.955 295.004L831 295.23L829.974 277.259L833.929 277.034L834.955 295.004ZM844.525 294.458C844.37 294.209 844.223 293.837 844.086 293.344C843.412 294.298 842.425 294.813 841.122 294.887C839.929 294.955 838.894 294.654 838.019 293.984C837.143 293.307 836.673 292.422 836.611 291.33C836.533 289.957 836.98 288.891 837.954 288.131C838.928 287.371 840.382 286.936 842.317 286.825L843.534 286.756L843.495 286.089C843.429 284.927 842.893 284.374 841.887 284.432C840.951 284.485 840.509 284.972 840.562 285.893L836.619 286.118C836.549 284.893 837.011 283.869 838.004 283.045C839.006 282.221 840.314 281.763 841.929 281.671C843.543 281.579 844.841 281.9 845.822 282.634C846.803 283.369 847.344 284.422 847.446 285.793L847.766 291.397C847.848 292.558 848.078 293.437 848.456 294.034L848.468 294.233L844.525 294.458ZM841.909 292.025C842.401 291.997 842.8 291.868 843.108 291.64C843.424 291.41 843.644 291.159 843.769 290.886L843.654 288.862L842.507 288.927C841.134 289.006 840.483 289.661 840.554 290.893C840.574 291.252 840.712 291.538 840.966 291.75C841.221 291.955 841.535 292.046 841.909 292.025ZM842.013 276.572L846.178 276.334L843.135 280.194L839.918 280.377L842.013 276.572Z" fill="black"/>
<path d="M819.381 540.797C819.346 540.196 819.105 539.74 818.657 539.429C818.217 539.118 817.452 538.813 816.363 538.516C815.274 538.218 814.381 537.921 813.683 537.624C811.414 536.666 810.225 535.239 810.117 533.344C810.063 532.4 810.288 531.554 810.793 530.805C811.306 530.048 812.054 529.442 813.037 528.987C814.02 528.523 815.14 528.256 816.395 528.184C817.62 528.115 818.728 528.27 819.72 528.652C820.72 529.033 821.512 529.614 822.097 530.394C822.681 531.167 823.003 532.072 823.062 533.109L818.967 533.343C818.927 532.649 818.682 532.123 818.231 531.765C817.788 531.407 817.204 531.249 816.479 531.29C815.746 531.332 815.174 531.529 814.764 531.881C814.361 532.225 814.173 532.646 814.202 533.146C814.227 533.582 814.483 533.967 814.972 534.299C815.46 534.623 816.304 534.943 817.503 535.258C818.703 535.565 819.693 535.915 820.474 536.309C822.376 537.265 823.38 538.675 823.486 540.539C823.571 542.028 823.076 543.23 822.002 544.145C820.927 545.059 819.411 545.572 817.453 545.684C816.072 545.763 814.807 545.588 813.655 545.161C812.511 544.726 811.63 544.095 811.012 543.27C810.401 542.436 810.063 541.458 809.999 540.334L814.118 540.099C814.17 541.012 814.442 541.673 814.935 542.083C815.435 542.485 816.216 542.656 817.277 542.595C817.955 542.556 818.481 542.382 818.855 542.071C819.236 541.752 819.411 541.327 819.381 540.797ZM830.451 540L831.997 531.918L836.15 531.681L832.743 544.576L828.718 544.806L823.865 532.383L828.031 532.145L830.451 540ZM844.992 543.877C844.837 543.628 844.691 543.256 844.553 542.763C843.88 543.717 842.892 544.232 841.589 544.306C840.396 544.374 839.362 544.073 838.486 543.403C837.61 542.726 837.141 541.841 837.079 540.749C837 539.376 837.448 538.31 838.422 537.55C839.396 536.79 840.85 536.355 842.784 536.244L844.001 536.175L843.963 535.508C843.897 534.346 843.36 533.793 842.354 533.851C841.418 533.904 840.977 534.391 841.029 535.312L837.086 535.537C837.016 534.312 837.478 533.288 838.472 532.464C839.474 531.64 840.782 531.182 842.396 531.09C844.011 530.998 845.308 531.319 846.289 532.053C847.27 532.788 847.812 533.841 847.913 535.212L848.233 540.816C848.315 541.977 848.546 542.856 848.924 543.453L848.935 543.652L844.992 543.877ZM842.377 541.444C842.868 541.416 843.268 541.287 843.576 541.059C843.891 540.829 844.112 540.578 844.237 540.305L844.121 538.281L842.975 538.346C841.602 538.425 840.951 539.08 841.021 540.312C841.042 540.671 841.179 540.957 841.434 541.169C841.688 541.374 842.002 541.465 842.377 541.444ZM837.272 528.296C837.247 527.867 837.394 527.49 837.712 527.167C838.038 526.843 838.45 526.667 838.949 526.639C839.449 526.61 839.875 526.738 840.227 527.023C840.588 527.308 840.78 527.665 840.805 528.094C840.829 528.523 840.679 528.899 840.353 529.223C840.035 529.546 839.626 529.722 839.127 529.751C838.628 529.779 838.198 529.651 837.837 529.367C837.485 529.082 837.296 528.725 837.272 528.296ZM843.344 527.949C843.319 527.52 843.466 527.144 843.784 526.82C844.11 526.497 844.522 526.321 845.021 526.292C845.521 526.264 845.947 526.392 846.299 526.677C846.66 526.961 846.852 527.318 846.877 527.747C846.901 528.176 846.751 528.553 846.425 528.876C846.107 529.2 845.698 529.376 845.199 529.404C844.7 529.433 844.27 529.305 843.91 529.02C843.557 528.735 843.368 528.378 843.344 527.949ZM854.281 527.489L854.46 530.636L856.543 530.517L856.699 533.255L854.616 533.374L854.947 539.165C854.974 539.641 855.079 539.968 855.261 540.145C855.444 540.322 855.788 540.397 856.295 540.368C856.685 540.345 857.011 540.303 857.274 540.241L857.435 543.061C856.738 543.328 856.004 543.483 855.231 543.527C853.874 543.605 852.854 543.342 852.17 542.739C851.486 542.137 851.107 541.184 851.032 539.882L850.674 533.599L849.059 533.691L848.903 530.953L850.517 530.861L850.338 527.714L854.281 527.489ZM863.572 537.276L865.271 530.019L869.494 529.778L865.178 544.849L864.987 545.4C864.347 547.08 863.099 547.973 861.243 548.079C860.728 548.108 860.181 548.061 859.603 547.938L859.442 545.118L859.957 545.088C860.511 545.057 860.927 544.951 861.206 544.771C861.494 544.598 861.696 544.301 861.813 543.879L862.081 543.019L856.952 530.494L861.164 530.253L863.572 537.276ZM863.376 524.798L867.541 524.56L864.499 528.42L861.281 528.603L863.376 524.798ZM821.943 570.046L816.315 570.367L815.514 573.605L811.127 573.856L816.402 556.464L820.263 556.244L827.53 572.919L823.119 573.171L821.943 570.046ZM817.117 567.14L820.779 566.931L818.605 561.128L817.117 567.14ZM830.937 560.025L831.15 561.503C831.958 560.307 833.131 559.665 834.667 559.577C835.986 559.502 836.991 559.839 837.683 560.59C838.383 561.341 838.79 562.507 838.904 564.089L839.37 572.244L835.415 572.469L834.959 564.478C834.922 563.839 834.767 563.378 834.493 563.096C834.218 562.807 833.741 562.682 833.063 562.72C832.29 562.764 831.735 563.101 831.395 563.731L831.905 572.67L827.962 572.895L827.24 560.236L830.937 560.025ZM845.253 556.05L845.433 559.197L847.515 559.078L847.672 561.816L845.589 561.935L845.92 567.726C845.947 568.202 846.052 568.529 846.234 568.706C846.416 568.883 846.761 568.958 847.268 568.929C847.658 568.906 847.984 568.864 848.246 568.802L848.407 571.622C847.711 571.889 846.976 572.044 846.204 572.088C844.847 572.166 843.826 571.903 843.142 571.3C842.458 570.698 842.079 569.745 842.005 568.443L841.646 562.16L840.032 562.252L839.875 559.514L841.49 559.422L841.31 556.275L845.253 556.05ZM848.584 565.25C848.512 563.986 848.693 562.849 849.128 561.838C849.563 560.82 850.226 560.019 851.116 559.436C852.006 558.853 853.071 558.526 854.311 558.455C856.207 558.347 857.734 558.851 858.893 559.966C860.052 561.074 860.689 562.638 860.804 564.658L860.812 564.798C860.925 566.772 860.464 568.371 859.431 569.596C858.405 570.813 856.956 571.474 855.084 571.581C853.282 571.684 851.805 571.228 850.651 570.214C849.497 569.193 848.825 567.76 848.633 565.916L848.584 565.25ZM852.54 565.271C852.607 566.441 852.84 567.288 853.237 567.813C853.635 568.338 854.193 568.58 854.91 568.539C856.314 568.459 856.97 567.338 856.878 565.176L856.855 564.778C856.726 562.508 855.936 561.415 854.485 561.497C853.167 561.573 852.509 562.592 852.511 564.556L852.54 565.271ZM865.802 558.034L866.015 559.513C866.824 558.316 867.996 557.674 869.532 557.586C870.851 557.511 871.856 557.849 872.548 558.6C873.248 559.35 873.655 560.516 873.769 562.098L874.235 570.253L870.28 570.479L869.824 562.488C869.788 561.848 869.632 561.388 869.358 561.106C869.083 560.817 868.606 560.691 867.928 560.73C867.156 560.774 866.6 561.111 866.26 561.741L866.77 570.679L862.828 570.904L862.105 558.245L865.802 558.034Z" fill="black"/>
<path d="M510.575 672.181L510.905 677.96L506.799 678.195L505.826 661.16L512.624 660.772C513.926 660.698 515.09 660.874 516.116 661.3C517.15 661.719 517.965 662.357 518.562 663.215C519.166 664.065 519.5 665.051 519.564 666.174C519.659 667.836 519.138 669.199 518.002 670.266C516.873 671.324 515.271 671.913 513.196 672.031L510.575 672.181ZM510.394 669.01L513.085 668.856C513.881 668.811 514.474 668.578 514.865 668.156C515.263 667.734 515.442 667.161 515.4 666.435C515.355 665.64 515.104 665.016 514.648 664.565C514.192 664.114 513.593 663.905 512.851 663.94L510.114 664.096L510.394 669.01ZM521.196 670.905C521.123 669.642 521.305 668.505 521.74 667.494C522.175 666.475 522.838 665.674 523.728 665.091C524.618 664.508 525.683 664.182 526.923 664.111C528.818 664.003 530.346 664.506 531.505 665.622C532.664 666.729 533.301 668.293 533.416 670.313L533.424 670.454C533.537 672.427 533.076 674.026 532.043 675.251C531.017 676.468 529.568 677.13 527.696 677.236C525.894 677.339 524.417 676.884 523.263 675.87C522.109 674.848 521.437 673.415 521.245 671.571L521.196 670.905ZM525.152 670.926C525.219 672.096 525.452 672.943 525.849 673.468C526.247 673.993 526.805 674.236 527.522 674.195C528.926 674.114 529.582 672.993 529.49 670.831L529.467 670.433C529.338 668.163 528.548 667.07 527.097 667.153C525.779 667.228 525.121 668.248 525.123 670.212L525.152 670.926ZM540.708 673.442C541.262 673.41 541.682 673.238 541.969 672.924C542.256 672.602 542.38 672.173 542.342 671.635L546.039 671.424C546.118 672.812 545.684 673.979 544.736 674.926C543.797 675.871 542.543 676.389 540.975 676.478C539.134 676.583 537.651 676.089 536.524 674.995C535.397 673.902 534.776 672.333 534.659 670.289L534.65 670.125C534.577 668.846 534.746 667.706 535.159 666.704C535.578 665.694 536.218 664.903 537.077 664.329C537.936 663.748 538.974 663.423 540.191 663.353C541.836 663.259 543.169 663.641 544.188 664.498C545.207 665.356 545.762 666.564 545.851 668.124L542.154 668.336C542.116 667.68 541.928 667.186 541.588 666.854C541.248 666.521 540.809 666.37 540.271 666.401C539.249 666.459 538.689 667.144 538.592 668.457C538.561 668.873 538.566 669.444 538.608 670.169C538.68 671.441 538.883 672.314 539.215 672.788C539.547 673.262 540.045 673.48 540.708 673.442ZM539.744 659.846L541.374 658.18L544.732 657.988L544.739 658.117L541.114 661.646L538.575 661.791L534.548 658.675L534.542 658.57L537.935 658.376L539.744 659.846ZM555.426 674.045C554.653 675.162 553.556 675.76 552.137 675.841C550.748 675.92 549.672 675.579 548.909 674.816C548.153 674.046 547.732 672.904 547.645 671.391L547.177 663.189L551.12 662.964L551.589 671.189C551.651 672.273 552.209 672.785 553.262 672.725C554.166 672.674 554.791 672.313 555.137 671.644L554.63 662.764L558.596 662.537L559.319 675.196L555.621 675.408L555.426 674.045ZM553.075 657.524L557.24 657.286L554.197 661.145L550.979 661.329L553.075 657.524ZM566.269 670.093L567.815 662.011L571.969 661.774L568.561 674.669L564.537 674.899L559.684 662.475L563.849 662.237L566.269 670.093ZM580.811 673.97C580.656 673.72 580.509 673.349 580.372 672.856C579.698 673.81 578.711 674.324 577.408 674.399C576.215 674.467 575.18 674.166 574.305 673.496C573.429 672.818 572.959 671.933 572.897 670.841C572.819 669.468 573.267 668.402 574.24 667.642C575.214 666.882 576.668 666.447 578.603 666.337L579.82 666.267L579.781 665.601C579.715 664.438 579.179 663.886 578.173 663.943C577.237 663.997 576.795 664.484 576.848 665.404L572.905 665.629C572.835 664.405 573.297 663.381 574.29 662.557C575.292 661.733 576.6 661.275 578.215 661.183C579.829 661.09 581.127 661.412 582.108 662.146C583.089 662.88 583.63 663.933 583.732 665.305L584.052 670.909C584.134 672.07 584.364 672.949 584.742 673.546L584.754 673.744L580.811 673.97ZM578.195 671.536C578.687 671.508 579.086 671.38 579.394 671.151C579.71 670.922 579.93 670.671 580.055 670.397L579.94 668.373L578.793 668.439C577.42 668.517 576.769 669.173 576.84 670.405C576.86 670.764 576.998 671.049 577.252 671.262C577.507 671.466 577.821 671.558 578.195 671.536ZM585.545 667.255C585.431 665.251 585.774 663.646 586.573 662.443C587.373 661.239 588.549 660.593 590.102 660.504C591.232 660.439 592.209 660.83 593.032 661.675L592.666 655.263L596.621 655.038L597.647 673.008L594.102 673.211L593.825 671.865C593.075 672.972 592.075 673.561 590.828 673.632C589.322 673.718 588.096 673.209 587.149 672.105C586.201 671.001 585.667 669.385 585.545 667.255ZM589.502 667.276C589.63 669.522 590.35 670.608 591.66 670.533C592.534 670.483 593.137 670.081 593.469 669.326L593.194 664.506C592.792 663.778 592.155 663.439 591.281 663.489C590.065 663.558 589.462 664.578 589.472 666.55L589.502 667.276ZM604.047 672.643L600.092 672.869L599.066 654.898L603.021 654.672L604.047 672.643ZM605.621 666.086C605.549 664.822 605.73 663.685 606.165 662.674C606.6 661.655 607.263 660.855 608.153 660.272C609.043 659.689 610.108 659.362 611.348 659.291C613.244 659.183 614.771 659.687 615.93 660.802C617.089 661.91 617.726 663.473 617.841 665.494L617.849 665.634C617.962 667.607 617.501 669.207 616.468 670.431C615.442 671.648 613.993 672.31 612.121 672.417C610.319 672.52 608.842 672.064 607.688 671.05C606.534 670.028 605.862 668.595 605.67 666.752L605.621 666.086ZM609.577 666.106C609.644 667.276 609.877 668.124 610.274 668.649C610.672 669.174 611.23 669.416 611.947 669.375C613.351 669.295 614.007 668.174 613.915 666.011L613.892 665.613C613.763 663.344 612.973 662.25 611.522 662.333C610.204 662.408 609.546 663.428 609.548 665.392L609.577 666.106Z" fill="black"/>
<path d="M342.546 181.594L345.231 168.998L349.817 168.737L345.056 186.099L340.564 186.355L333.905 169.645L338.456 169.385L342.546 181.594ZM356.464 179.907L358.163 172.65L362.386 172.409L358.07 187.48L357.879 188.031C357.239 189.711 355.991 190.604 354.135 190.71C353.62 190.739 353.073 190.692 352.495 190.569L352.334 187.749L352.849 187.72C353.403 187.688 353.819 187.582 354.099 187.402C354.386 187.229 354.588 186.932 354.705 186.51L354.973 185.65L349.844 173.125L354.056 172.884L356.464 179.907ZM367.354 173.487C368.136 172.378 369.182 171.786 370.493 171.711C371.889 171.632 372.965 171.985 373.722 172.771C374.479 173.558 374.912 174.757 375.019 176.371L375.476 184.362L371.521 184.588L371.07 176.69C371.032 176.02 370.867 175.536 370.577 175.24C370.285 174.936 369.812 174.802 369.157 174.84C368.346 174.886 367.787 175.176 367.481 175.71L368 184.789L364.057 185.014L363.031 167.043L366.974 166.818L367.354 173.487ZM380.568 171.371L380.781 172.85C381.589 171.653 382.762 171.011 384.298 170.923C385.616 170.848 386.622 171.186 387.314 171.937C388.014 172.687 388.421 173.853 388.535 175.435L389.001 183.59L385.046 183.816L384.59 175.825C384.553 175.185 384.398 174.725 384.124 174.443C383.849 174.153 383.372 174.028 382.694 174.067C381.921 174.111 381.365 174.448 381.026 175.077L381.536 184.016L377.593 184.241L376.871 171.582L380.568 171.371ZM397.332 183.349C395.39 183.46 393.786 182.972 392.519 181.887C391.251 180.793 390.564 179.318 390.458 177.462L390.44 177.134C390.366 175.839 390.538 174.683 390.958 173.665C391.385 172.647 392.043 171.843 392.933 171.252C393.822 170.653 394.898 170.318 396.162 170.246C397.94 170.144 399.376 170.618 400.468 171.667C401.561 172.708 402.163 174.215 402.276 176.188L402.364 177.721L394.525 178.169C394.706 178.87 395.046 179.41 395.544 179.789C396.043 180.167 396.671 180.335 397.428 180.292C398.676 180.221 399.626 179.728 400.278 178.814L402.201 180.841C401.749 181.548 401.081 182.129 400.2 182.587C399.326 183.036 398.37 183.29 397.332 183.349ZM396.312 173.289C395.158 173.355 394.515 174.159 394.384 175.7L398.362 175.473L398.344 175.169C398.324 174.536 398.136 174.058 397.781 173.734C397.426 173.402 396.936 173.254 396.312 173.289Z" fill="black"/>
<path d="M522.951 496.773C522.916 496.173 522.675 495.717 522.227 495.406C521.787 495.095 521.022 494.79 519.933 494.492C518.844 494.194 517.951 493.897 517.253 493.601C514.984 492.642 513.795 491.216 513.687 489.32C513.633 488.377 513.858 487.53 514.363 486.782C514.876 486.025 515.624 485.418 516.607 484.963C517.59 484.5 518.71 484.233 519.965 484.161C521.19 484.091 522.298 484.247 523.29 484.629C524.29 485.01 525.082 485.591 525.667 486.371C526.251 487.144 526.573 488.049 526.632 489.086L522.537 489.32C522.497 488.626 522.252 488.1 521.801 487.742C521.358 487.384 520.774 487.226 520.049 487.267C519.316 487.309 518.744 487.506 518.333 487.858C517.931 488.202 517.743 488.623 517.772 489.122C517.797 489.559 518.053 489.944 518.542 490.276C519.03 490.6 519.874 490.92 521.073 491.234C522.273 491.542 523.263 491.892 524.044 492.286C525.946 493.241 526.95 494.651 527.056 496.515C527.141 498.005 526.646 499.207 525.572 500.121C524.497 501.036 522.981 501.549 521.023 501.661C519.642 501.739 518.377 501.565 517.225 501.138C516.081 500.702 515.2 500.072 514.582 499.246C513.971 498.413 513.633 497.434 513.569 496.311L517.688 496.076C517.74 496.989 518.012 497.65 518.505 498.06C519.005 498.462 519.786 498.632 520.847 498.572C521.525 498.533 522.051 498.358 522.425 498.047C522.806 497.728 522.981 497.304 522.951 496.773ZM519.737 481.392L521.367 479.726L524.725 479.535L524.732 479.663L521.107 483.192L518.568 483.337L514.541 480.222L514.535 480.116L517.927 479.923L519.737 481.392ZM532.93 484.888L533.11 488.035L535.192 487.917L535.349 490.654L533.266 490.773L533.597 496.565C533.624 497.04 533.729 497.367 533.911 497.544C534.093 497.722 534.438 497.796 534.945 497.767C535.335 497.745 535.661 497.703 535.924 497.641L536.085 500.46C535.388 500.727 534.653 500.882 533.881 500.927C532.524 501.004 531.503 500.741 530.819 500.139C530.135 499.536 529.756 498.584 529.682 497.281L529.323 490.998L527.709 491.09L527.552 488.353L529.167 488.261L528.987 485.113L532.93 484.888ZM541.636 500.249L537.682 500.475L536.959 487.816L540.914 487.59L541.636 500.249ZM536.539 484.565C536.507 484.003 536.683 483.532 537.068 483.15C537.453 482.768 537.97 482.558 538.617 482.521C539.264 482.484 539.801 482.634 540.227 482.969C540.653 483.305 540.882 483.753 540.914 484.315C540.946 484.877 540.77 485.348 540.385 485.73C540 486.112 539.483 486.322 538.836 486.359C538.189 486.396 537.652 486.246 537.226 485.911C536.8 485.575 536.571 485.126 536.539 484.565ZM551.207 499.703C551.051 499.453 550.905 499.082 550.767 498.589C550.094 499.543 549.106 500.057 547.804 500.132C546.61 500.2 545.576 499.899 544.7 499.229C543.824 498.551 543.355 497.666 543.293 496.574C543.214 495.202 543.662 494.135 544.636 493.375C545.61 492.616 547.064 492.18 548.998 492.07L550.215 492.001L550.177 491.334C550.111 490.172 549.575 489.619 548.568 489.677C547.632 489.73 547.191 490.217 547.243 491.137L543.3 491.362C543.23 490.138 543.692 489.114 544.686 488.29C545.688 487.466 546.996 487.008 548.61 486.916C550.225 486.824 551.523 487.145 552.504 487.879C553.484 488.613 554.026 489.666 554.128 491.038L554.448 496.642C554.529 497.803 554.76 498.682 555.138 499.279L555.149 499.478L551.207 499.703ZM548.591 497.27C549.082 497.242 549.482 497.113 549.79 496.884C550.105 496.655 550.326 496.404 550.451 496.131L550.335 494.107L549.189 494.172C547.816 494.25 547.165 494.906 547.235 496.138C547.256 496.497 547.393 496.782 547.648 496.995C547.902 497.199 548.217 497.291 548.591 497.27ZM561.398 494.414L562.944 486.332L567.097 486.095L563.69 498.99L559.665 499.22L554.813 486.796L558.978 486.559L561.398 494.414ZM571.894 485.821L572.108 487.3C572.916 486.103 574.088 485.461 575.625 485.374C576.943 485.298 577.948 485.636 578.641 486.387C579.341 487.137 579.748 488.304 579.862 489.886L580.327 498.04L576.373 498.266L575.916 490.275C575.88 489.636 575.725 489.175 575.45 488.893C575.175 488.604 574.699 488.478 574.02 488.517C573.248 488.561 572.692 488.898 572.352 489.528L572.863 498.466L568.92 498.691L568.197 486.032L571.894 485.821ZM586.68 497.678L582.726 497.903L582.003 485.244L585.957 485.018L586.68 497.678ZM581.583 481.993C581.55 481.432 581.727 480.96 582.112 480.578C582.497 480.196 583.013 479.987 583.661 479.95C584.308 479.913 584.845 480.062 585.271 480.398C585.697 480.733 585.926 481.182 585.958 481.744C585.99 482.305 585.814 482.777 585.429 483.159C585.044 483.541 584.527 483.75 583.88 483.787C583.233 483.824 582.696 483.675 582.27 483.339C581.844 483.004 581.615 482.555 581.583 481.993ZM594.312 494.425C594.866 494.393 595.286 494.221 595.573 493.907C595.86 493.585 595.984 493.156 595.946 492.618L599.643 492.407C599.722 493.795 599.288 494.962 598.34 495.909C597.401 496.854 596.147 497.372 594.579 497.461C592.738 497.566 591.255 497.072 590.128 495.978C589.001 494.884 588.38 493.316 588.263 491.272L588.254 491.108C588.18 489.829 588.35 488.689 588.762 487.687C589.182 486.677 589.822 485.886 590.681 485.312C591.54 484.731 592.578 484.406 593.795 484.336C595.44 484.242 596.773 484.624 597.792 485.481C598.811 486.339 599.365 487.547 599.455 489.107L595.757 489.318C595.72 488.663 595.531 488.169 595.192 487.837C594.852 487.504 594.413 487.353 593.875 487.384C592.853 487.442 592.293 488.127 592.196 489.44C592.165 489.856 592.17 490.427 592.212 491.152C592.284 492.424 592.487 493.297 592.819 493.771C593.151 494.245 593.649 494.463 594.312 494.425ZM606.382 491.822L605.334 492.997L605.54 496.601L601.597 496.826L600.571 478.844L604.513 478.618L605.058 488.165L605.426 487.616L608.187 483.749L612.913 483.48L608.777 488.939L613.929 496.122L609.413 496.38L606.382 491.822ZM620.576 495.977C618.634 496.088 617.029 495.601 615.762 494.515C614.494 493.421 613.808 491.946 613.702 490.09L613.683 489.762C613.609 488.468 613.782 487.311 614.201 486.294C614.628 485.275 615.286 484.471 616.176 483.88C617.065 483.282 618.142 482.946 619.405 482.874C621.184 482.773 622.619 483.246 623.712 484.295C624.804 485.336 625.407 486.843 625.519 488.817L625.607 490.349L617.768 490.797C617.949 491.499 618.289 492.039 618.788 492.417C619.287 492.796 619.915 492.963 620.671 492.92C621.919 492.849 622.869 492.356 623.521 491.443L625.445 493.469C624.992 494.176 624.325 494.758 623.443 495.215C622.569 495.664 621.613 495.918 620.576 495.977ZM619.555 485.918C618.401 485.983 617.758 486.787 617.627 488.328L621.605 488.101L621.588 487.797C621.567 487.164 621.38 486.686 621.025 486.362C620.669 486.03 620.179 485.882 619.555 485.918ZM619.044 477.789L623.21 477.551L620.167 481.411L616.949 481.594L619.044 477.789ZM516.019 529.757L515.046 512.722L521.165 512.373C523.357 512.248 525.045 512.555 526.23 513.293C527.422 514.031 528.062 515.164 528.149 516.693C528.199 517.574 528.04 518.339 527.67 518.986C527.3 519.633 526.729 520.127 525.958 520.468C526.861 520.652 527.568 521.049 528.081 521.662C528.593 522.274 528.875 523.041 528.928 523.961C529.023 525.63 528.565 526.916 527.552 527.819C526.547 528.714 525.007 529.228 522.933 529.362L516.019 529.757ZM519.712 522.281L519.945 526.364L522.636 526.21C523.377 526.168 523.937 525.968 524.315 525.61C524.693 525.244 524.865 524.753 524.83 524.136C524.749 522.717 524.002 522.043 522.59 522.116L519.712 522.281ZM519.558 519.59L521.699 519.467C522.596 519.408 523.226 519.208 523.59 518.866C523.954 518.525 524.118 518.042 524.082 517.418C524.041 516.7 523.805 516.197 523.374 515.909C522.942 515.613 522.266 515.491 521.346 515.544L519.334 515.659L519.558 519.59ZM538.435 528.477C538.28 528.228 538.134 527.857 537.996 527.364C537.323 528.318 536.335 528.832 535.032 528.906C533.839 528.975 532.804 528.674 531.929 528.004C531.053 527.326 530.584 526.441 530.521 525.349C530.443 523.976 530.891 522.91 531.865 522.15C532.839 521.39 534.293 520.955 536.227 520.845L537.444 520.775L537.406 520.108C537.339 518.946 536.803 518.394 535.797 518.451C534.861 518.505 534.419 518.992 534.472 519.912L530.529 520.137C530.459 518.913 530.921 517.888 531.915 517.065C532.916 516.241 534.224 515.783 535.839 515.69C537.453 515.598 538.751 515.919 539.732 516.654C540.713 517.388 541.254 518.441 541.356 519.812L541.676 525.417C541.758 526.578 541.988 527.457 542.367 528.053L542.378 528.252L538.435 528.477ZM535.82 526.044C536.311 526.016 536.711 525.888 537.018 525.659C537.334 525.43 537.554 525.178 537.68 524.905L537.564 522.881L536.417 522.947C535.045 523.025 534.394 523.68 534.464 524.913C534.484 525.272 534.622 525.557 534.877 525.77C535.131 525.974 535.445 526.066 535.82 526.044ZM546.932 515.292L547.145 516.77C547.954 515.574 549.126 514.932 550.662 514.844C551.981 514.769 552.986 515.107 553.678 515.858C554.378 516.608 554.785 517.774 554.899 519.356L555.365 527.511L551.41 527.737L550.954 519.746C550.917 519.106 550.762 518.646 550.488 518.364C550.213 518.074 549.736 517.949 549.058 517.988C548.286 518.032 547.73 518.369 547.39 518.998L547.9 527.937L543.957 528.162L543.235 515.503L546.932 515.292ZM563.697 527.27C561.754 527.381 560.15 526.893 558.883 525.808C557.615 524.714 556.928 523.239 556.822 521.383L556.804 521.055C556.73 519.76 556.902 518.604 557.322 517.586C557.749 516.568 558.407 515.764 559.297 515.173C560.186 514.574 561.262 514.239 562.526 514.167C564.304 514.065 565.74 514.539 566.833 515.588C567.925 516.629 568.528 518.136 568.64 520.109L568.728 521.642L560.889 522.09C561.07 522.791 561.41 523.331 561.909 523.71C562.408 524.088 563.035 524.256 563.792 524.213C565.04 524.141 565.99 523.649 566.642 522.735L568.565 524.762C568.113 525.468 567.446 526.05 566.564 526.508C565.69 526.957 564.734 527.211 563.697 527.27ZM562.676 517.21C561.522 517.276 560.879 518.08 560.748 519.621L564.726 519.394L564.708 519.09C564.688 518.457 564.5 517.979 564.145 517.655C563.79 517.323 563.3 517.175 562.676 517.21Z" fill="black"/>
</g>
</svg>
